<svg width="121" height="121" viewBox="0 0 121 121" fill="none" xmlns="http://www.w3.org/2000/svg">
<rect width="121" height="121" rx="12.1" fill="#6255EC"/>
<path d="M59.7337 100.133C56.1198 100.133 52.7318 99.079 49.5697 96.9709C46.4076 94.7876 43.6219 91.8136 41.2126 88.0492C38.8787 84.2848 37.0341 79.8804 35.6789 74.836C34.399 69.7164 33.759 64.2203 33.759 58.3477C33.759 52.4752 34.399 47.0168 35.6789 41.9724C37.0341 36.928 38.8787 32.5236 41.2126 28.7592C43.6219 24.9195 46.4076 21.9456 49.5697 19.8375C52.7318 17.7294 56.1198 16.6753 59.7337 16.6753C63.3476 16.6753 66.6979 17.7294 69.7848 19.8375C72.9469 21.9456 75.7326 24.9195 78.1418 28.7592C80.5511 32.5236 82.3957 36.928 83.6756 41.9724C85.0308 47.0168 85.7084 52.4752 85.7084 58.3477C85.7084 64.2203 85.0308 69.7164 83.6756 74.836C82.3957 79.8804 80.5511 84.2848 78.1418 88.0492C75.7326 91.8136 72.9469 94.7876 69.7848 96.9709C66.6979 99.079 63.3476 100.133 59.7337 100.133ZM59.7337 97.0839C65.0792 97.0839 69.2577 93.8841 72.2693 87.4845C75.2809 81.085 76.7866 71.3727 76.7866 58.3477C76.7866 45.3228 75.2809 35.6481 72.2693 29.3239C69.2577 22.9243 65.0792 19.7245 59.7337 19.7245C54.4635 19.7245 50.2849 22.9243 47.1981 29.3239C44.1865 35.6481 42.6808 45.3228 42.6808 58.3477C42.6808 71.3727 44.1865 81.085 47.1981 87.4845C50.2849 93.8841 54.4635 97.0839 59.7337 97.0839Z" fill="white"/>
<path d="M47.1981 99.1167C46.0688 99.1167 45.5041 98.7026 45.5041 97.8744C45.5041 97.1968 45.9935 96.7451 46.9723 96.5192L49.5697 96.0675C51.1508 95.7663 52.1672 95.3522 52.6189 94.8252C53.146 94.2982 53.4095 93.2441 53.4095 91.6631V25.2583C53.4095 23.6772 53.146 22.6232 52.6189 22.0961C52.1672 21.5691 51.1508 21.155 49.5697 20.8539L46.9723 20.4021C45.9935 20.1763 45.5041 19.7245 45.5041 19.0469C45.5041 18.2188 46.0688 17.8047 47.1981 17.8047H67.8649C68.9943 17.8047 69.5589 18.2564 69.5589 19.1599C69.5589 19.8375 69.1448 20.2516 68.3167 20.4021L65.2675 20.8539C63.6864 21.0797 62.6324 21.4938 62.1053 22.0961C61.6536 22.6984 61.4277 23.7901 61.4277 25.3712V88.6139C61.4277 91.3243 62.1806 93.2818 63.6864 94.4864C65.2675 95.691 67.225 96.2933 69.5589 96.2933C71.2906 96.2933 73.0599 95.9545 74.8668 95.2769C76.749 94.524 78.443 93.1688 79.9488 91.2113C81.4546 89.1785 82.5839 86.2423 83.3368 82.4025L84.8049 74.836C85.0308 73.8572 85.5955 73.3679 86.4989 73.3679C87.553 73.3679 88.0047 74.0078 87.8541 75.2877L86.4989 96.5192C86.3484 98.2508 85.4072 99.1167 83.6756 99.1167H47.1981Z" fill="white"/>
</svg>
